<svg width="28" height="28" viewBox="0 0 28 28" fill="none" xmlns="http://www.w3.org/2000/svg">
<path d="M18.5996 3.04041C18.5463 3.37374 18.5196 3.70707 18.5196 4.04041C18.5196 7.04041 20.9463 9.46574 23.9329 9.46574C24.2663 9.46574 24.5863 9.42707 24.9196 9.37374V20.1324C24.9196 24.6537 22.2529 27.3337 17.7196 27.3337H7.86759C3.33293 27.3337 0.66626 24.6537 0.66626 20.1324V10.2671C0.66626 5.73374 3.33293 3.04041 7.86759 3.04041H18.5996ZM18.8676 11.1471C18.5063 11.1071 18.1476 11.2671 17.9329 11.5604L14.7076 15.7337L11.0129 12.8271C10.7863 12.6537 10.5196 12.5857 10.2529 12.6137C9.98759 12.6537 9.74759 12.7991 9.58626 13.0124L5.64093 18.1471L5.55959 18.2671C5.33293 18.6924 5.43959 19.2391 5.83959 19.5337C6.02626 19.6537 6.22626 19.7337 6.45293 19.7337C6.76093 19.7471 7.05293 19.5857 7.23959 19.3337L10.5863 15.0257L14.3863 17.8804L14.5063 17.9591C14.9329 18.1857 15.4663 18.0804 15.7729 17.6791L19.6263 12.7071L19.5729 12.7337C19.7863 12.4404 19.8263 12.0671 19.6796 11.7337C19.5343 11.4004 19.2129 11.1737 18.8676 11.1471ZM24.1197 0.666672C25.8931 0.666672 27.3331 2.10667 27.3331 3.88001C27.3331 5.65334 25.8931 7.09334 24.1197 7.09334C22.3464 7.09334 20.9064 5.65334 20.9064 3.88001C20.9064 2.10667 22.3464 0.666672 24.1197 0.666672Z" fill="#B8BED9"/>
</svg>
