<svg width="26" height="28" viewBox="0 0 26 28" fill="none" xmlns="http://www.w3.org/2000/svg">
<path d="M9.17968 25.6978V21.6208C9.17968 20.5801 10.0295 19.7364 11.0779 19.7364H14.9101C15.4136 19.7364 15.8964 19.9349 16.2524 20.2883C16.6083 20.6417 16.8083 21.121 16.8083 21.6208V25.6978C16.8052 26.1305 16.9761 26.5465 17.2831 26.8536C17.5902 27.1606 18.008 27.3333 18.4439 27.3333H21.0584C22.2795 27.3365 23.4516 26.8571 24.3162 26.0011C25.1808 25.145 25.6666 23.9826 25.6666 22.7704V11.1558C25.6666 10.1766 25.2294 9.24778 24.4728 8.61955L15.5787 1.56782C14.0315 0.331405 11.8148 0.371326 10.3138 1.66263L1.62266 8.61955C0.8303 9.22926 0.356716 10.1608 0.333313 11.1558V22.7586C0.333313 25.2851 2.39649 27.3333 4.94154 27.3333H7.49637C8.40161 27.3333 9.13731 26.6083 9.14387 25.7096L9.17968 25.6978Z" fill="white"/>
</svg>
