<svg width="26" height="28" viewBox="0 0 26 28" fill="none" xmlns="http://www.w3.org/2000/svg">
<path d="M13.9562 0.666794C14.9645 0.666794 15.8774 1.22679 16.3816 2.05346C16.6269 2.45346 16.7904 2.94679 16.7495 3.46679C16.7223 3.86679 16.8449 4.26679 17.0629 4.64013C17.7578 5.77346 19.2976 6.20013 20.4967 5.56013C21.8457 4.78679 23.5489 5.25346 24.3256 6.57346L25.2386 8.14679C26.0289 9.46679 25.5928 11.1601 24.2302 11.9201C23.072 12.6001 22.6632 14.1068 23.3582 15.2535C23.5762 15.6135 23.8215 15.9201 24.203 16.1068C24.6799 16.3601 25.0478 16.7601 25.3067 17.1601C25.8109 17.9868 25.77 19.0001 25.2794 19.8935L24.3256 21.4935C23.8215 22.3468 22.8813 22.8801 21.9138 22.8801C21.4369 22.8801 20.9055 22.7468 20.4694 22.4801C20.1152 22.2535 19.7064 22.1735 19.2703 22.1735C17.9214 22.1735 16.7904 23.2801 16.7495 24.6001C16.7495 26.1335 15.4959 27.3335 13.9289 27.3335H12.0758C10.4951 27.3335 9.24153 26.1335 9.24153 24.6001C9.21428 23.2801 8.08331 22.1735 6.73433 22.1735C6.28467 22.1735 5.87588 22.2535 5.53523 22.4801C5.09919 22.7468 4.55415 22.8801 4.09086 22.8801C3.10978 22.8801 2.16958 22.3468 1.66542 21.4935L0.725217 19.8935C0.221052 19.0268 0.1938 17.9868 0.697965 17.1601C0.915983 16.7601 1.32477 16.3601 1.78805 16.1068C2.16958 15.9201 2.41485 15.6135 2.6465 15.2535C3.3278 14.1068 2.91902 12.6001 1.7608 11.9201C0.411817 11.1601 -0.0242181 9.46679 0.75247 8.14679L1.66542 6.57346C2.45573 5.25346 4.14537 4.78679 5.50798 5.56013C6.69345 6.20013 8.2332 5.77346 8.92813 4.64013C9.14615 4.26679 9.26878 3.86679 9.24153 3.46679C9.21428 2.94679 9.36416 2.45346 9.62306 2.05346C10.1272 1.22679 11.0402 0.69346 12.0349 0.666794H13.9562ZM13.016 10.2401C10.8767 10.2401 9.14615 11.9201 9.14615 14.0135C9.14615 16.1068 10.8767 17.7735 13.016 17.7735C15.1553 17.7735 16.8449 16.1068 16.8449 14.0135C16.8449 11.9201 15.1553 10.2401 13.016 10.2401Z" fill="#B8BED9"/>
</svg>
